<svg width="22" height="21" viewBox="0 0 22 21" fill="none" xmlns="http://www.w3.org/2000/svg">
<path fill-rule="evenodd" clip-rule="evenodd" d="M11.0001 1.51728C10.3275 1.51728 9.68239 1.74813 9.20677 2.15905C8.73114 2.56996 8.46393 3.12729 8.46393 3.70841V3.96161C9.09178 3.95187 9.7805 3.95187 10.538 3.95187H11.4634C12.2186 3.95187 12.9085 3.95187 13.5374 3.96161V3.70841C13.5374 3.42059 13.4718 3.13558 13.3443 2.86968C13.2168 2.60377 13.0298 2.36218 12.7942 2.1587C12.5586 1.95522 12.2789 1.79385 11.971 1.68379C11.6632 1.57373 11.3333 1.51715 11.0001 1.51728ZM15.2271 4.02783V3.70841C15.2271 2.73987 14.7818 1.811 13.9891 1.12614C13.1963 0.441274 12.1212 0.0565224 11.0001 0.0565224C9.87906 0.0565224 8.80391 0.441274 8.01119 1.12614C7.21848 1.811 6.77313 2.73987 6.77313 3.70841V4.02783C6.61194 4.03952 6.45752 4.05315 6.30647 4.06971C5.168 4.19143 4.23017 4.44658 3.43212 5.01822C2.63519 5.58986 2.17191 6.33972 1.82361 7.28434C1.48545 8.19975 1.2307 9.37517 0.910576 10.8544L0.886905 10.9616C0.433771 13.0485 0.0775765 14.6933 0.0110718 15.9895C-0.0565601 17.3188 0.173388 18.4192 1.04133 19.3219C1.90927 20.2257 3.11876 20.623 4.64273 20.8109C6.13063 20.994 8.06603 20.994 10.5244 20.994H11.4769C13.9342 20.994 15.8707 20.994 17.3575 20.8109C18.8815 20.623 20.0921 20.2257 20.96 19.3219C21.828 18.4192 22.0557 17.3188 21.9892 15.9895C21.9238 14.6933 21.5665 13.0485 21.1133 10.9616L21.0908 10.8544C20.7696 9.37517 20.5137 8.19877 20.1778 7.28434C19.8283 6.33972 19.3662 5.58986 18.5681 5.01822C17.7712 4.44658 16.8322 4.19046 15.6938 4.06971C15.5385 4.05326 15.383 4.0393 15.2271 4.02783ZM6.51388 5.51975C5.55012 5.622 4.96736 5.8158 4.51197 6.143C4.05771 6.46827 3.7297 6.92694 3.43437 7.72744C3.13341 8.54546 2.89557 9.63421 2.56192 11.1719C2.09301 13.3309 1.76048 14.8725 1.70074 16.0537C1.64213 17.2126 1.85855 17.8846 2.34212 18.39C2.82681 18.8935 3.5516 19.2002 4.88169 19.3638C6.23433 19.5313 8.05138 19.5333 10.5932 19.5333H11.407C13.9489 19.5333 15.7648 19.5313 17.1186 19.3648C18.4486 19.2002 19.1734 18.8935 19.6581 18.39C20.1428 17.8855 20.3581 17.2136 20.3006 16.0528C20.2398 14.8735 19.9072 13.3309 19.4383 11.1719C19.1047 9.63324 18.868 8.54643 18.5659 7.72744C18.2706 6.92694 17.9437 6.46827 17.4883 6.14203C17.0329 5.81579 16.4513 5.622 15.4864 5.51878C14.4989 5.4136 13.2173 5.41263 11.4059 5.41263H10.5943C8.78293 5.41263 7.5013 5.4136 6.51388 5.51975Z" fill="black"/>
</svg>
