<svg width="28" height="22" viewBox="0 0 28 22" fill="none" xmlns="http://www.w3.org/2000/svg">
<path d="M20.25 0.0565224C17.6688 0.0565224 15.4087 1.02679 14 2.66686C12.5912 1.02679 10.3313 0.0565224 7.75 0.0565224C5.69528 0.0585468 3.72539 0.772929 2.27248 2.04294C0.819575 3.31295 0.00231592 5.03488 0 6.83095C0 14.4795 12.9738 20.6704 13.5263 20.9261C13.6719 20.9946 13.8346 21.0304 14 21.0304C14.1654 21.0304 14.3281 20.9946 14.4737 20.9261C15.0262 20.6704 28 14.4795 28 6.83095C27.9977 5.03488 27.1804 3.31295 25.7275 2.04294C24.2746 0.772929 22.3047 0.0585468 20.25 0.0565224ZM14 19.156C11.7175 17.9934 2 12.6974 2 6.83095C2.00198 5.49845 2.60842 4.22103 3.68633 3.27881C4.76423 2.3366 6.22561 1.8065 7.75 1.80476C10.1813 1.80476 12.2225 2.93674 13.075 4.75491C13.1503 4.91524 13.2785 5.05236 13.4432 5.14887C13.6079 5.24537 13.8017 5.2969 14 5.2969C14.1983 5.2969 14.3921 5.24537 14.5568 5.14887C14.7215 5.05236 14.8497 4.91524 14.925 4.75491C15.7775 2.93347 17.8188 1.80476 20.25 1.80476C21.7744 1.8065 23.2358 2.3366 24.3137 3.27881C25.3916 4.22103 25.998 5.49845 26 6.83095C26 12.6886 16.28 17.9924 14 19.156Z" fill="black"/>
</svg>
