<svg width="24" height="22" viewBox="0 0 24 22" fill="none" xmlns="http://www.w3.org/2000/svg">
<path d="M9.64867 0.0565224C11.4827 0.0563462 13.2788 0.512878 14.8266 1.37264C16.3744 2.2324 17.6097 3.45978 18.3879 4.91099C19.1661 6.36221 19.4549 7.97716 19.2205 9.56666C18.9862 11.1562 18.2383 12.6544 17.0645 13.8858L23.72 19.7017C23.8355 19.7954 23.9199 19.9146 23.9644 20.0467C24.0089 20.1788 24.0117 20.3189 23.9727 20.4523C23.9337 20.5857 23.8542 20.7075 23.7426 20.8047C23.631 20.902 23.4915 20.9711 23.3387 21.0049C23.1862 21.039 23.026 21.0367 22.8749 20.998C22.7238 20.9593 22.5875 20.8858 22.4802 20.7851L15.8246 14.9693C14.6337 15.8358 13.2214 16.4389 11.7073 16.7276C10.1933 17.0163 8.62185 16.9822 7.12607 16.628C5.63029 16.2738 4.25412 15.61 3.11399 14.6928C1.97385 13.7756 1.10328 12.6319 0.575918 11.3585C0.0485562 10.0851 -0.120085 8.7195 0.0842605 7.37711C0.288606 6.03473 0.859927 4.75509 1.74989 3.64645C2.63986 2.53781 3.8223 1.63277 5.19718 1.0079C6.57206 0.383029 8.09894 0.0567012 9.64867 0.0565224ZM1.75326 8.48902C1.75326 9.39505 1.95748 10.2922 2.35426 11.1293C2.75105 11.9663 3.33262 12.7269 4.06577 13.3676C4.79893 14.0082 5.66931 14.5164 6.62723 14.8631C7.58514 15.2099 8.61183 15.3883 9.64867 15.3883C10.6855 15.3883 11.7122 15.2099 12.6701 14.8631C13.628 14.5164 14.4984 14.0082 15.2316 13.3676C15.9647 12.7269 16.5463 11.9663 16.9431 11.1293C17.3399 10.2922 17.5441 9.39505 17.5441 8.48902C17.5441 6.6592 16.7122 4.90434 15.2316 3.61046C13.7509 2.31659 11.7427 1.5897 9.64867 1.5897C7.55468 1.5897 5.54645 2.31659 4.06577 3.61046C2.5851 4.90434 1.75326 6.6592 1.75326 8.48902Z" fill="black"/>
</svg>
